<svg width="24" height="24" viewBox="0 3 22 19" fill="none" xmlns="http://www.w3.org/2000/svg">
<path fill-rule="evenodd" clip-rule="evenodd" d="M20.1594 5.6602H23.5226C23.6557 5.65856 23.7852 5.7077 23.877 5.79453C23.9671 5.88135 24.0102 5.9993 23.9971 6.11725L22.8025 17.7584C22.7799 17.9763 22.5699 18.1418 22.3224 18.1401H16.882C16.6307 18.1418 16.4225 17.973 16.4019 17.7552L15.361 6.11234C15.3498 5.99603 15.3966 5.87971 15.4904 5.79453C15.5804 5.70934 15.708 5.6602 15.8411 5.6602H19.324V3.30384L15.645 1.72206L15.6434 1.72033C15.534 1.68234 15.4459 1.59773 15.397 1.48548C15.3497 1.37497 15.3464 1.2489 15.3905 1.13493C15.4329 1.02269 15.5194 0.932895 15.6254 0.889722C15.7331 0.844825 15.8538 0.850004 15.9566 0.903537L19.8951 2.601C20.0533 2.66662 20.1577 2.82722 20.1594 3.00681V5.6602ZM12.0944 8.53993H1.38822C1.25712 8.54381 1.1325 8.49731 1.05158 8.41596C0.970661 8.3346 0.941529 8.22742 0.973896 8.12669C1.45132 6.67518 3.0957 5.66273 4.97636 5.66016H8.46899C10.348 5.66403 11.9891 6.67647 12.4666 8.12669C12.5006 8.22484 12.473 8.32944 12.397 8.41079C12.3241 8.48699 12.2141 8.53348 12.0944 8.53993ZM10.5703 18.1397H2.86379C1.81336 18.1381 0.964101 17.2893 0.960938 16.2429V15.6644C0.960938 15.44 1.14314 15.2598 1.36654 15.2598H12.0753C12.1831 15.2598 12.2861 15.3024 12.3621 15.3783C12.4382 15.4542 12.4809 15.5569 12.4809 15.6644V16.2429C12.4809 16.7472 12.2781 17.2309 11.9201 17.5865C11.562 17.9437 11.0757 18.1429 10.5703 18.1397ZM12.1286 13.339H1.31137C0.58797 13.339 0 12.6937 0 11.8998C0 11.1043 0.58797 10.459 1.31137 10.459H12.1286C12.852 10.459 13.44 11.1043 13.44 11.8998C13.44 12.6937 12.852 13.339 12.1286 13.339Z" fill="white"/>
</svg>
