<svg width="23" height="23" viewBox="0 1 17 17" fill="none"
    xmlns="http://www.w3.org/2000/svg">
    <path fill-rule="evenodd" clip-rule="evenodd" d="M5.5 0.5C3.84315 0.5 2.5 1.84315 2.5 3.5V5.5H3.49808C4.05036 5.5 4.49808 5.94772 4.49808 6.5L4.49808 10.5H12.5V6.5C12.5 5.94771 12.9477 5.5 13.5 5.5H14.5L14.5 3.5C14.5 1.84315 13.1569 0.5 11.5 0.5H5.5Z" fill="white"/>
    <path fill-rule="evenodd" clip-rule="evenodd" d="M3.5 7.5C3.5 6.94772 3.05228 6.5 2.5 6.5H1.5C0.947716 6.5 0.5 6.94772 0.5 7.5V13.5C0.5 14.0523 0.947715 14.5 1.5 14.5L1.5 16C1.5 16.2761 1.72386 16.5 2 16.5H3C3.27614 16.5 3.5 16.2761 3.5 16V14.5H13.5V16C13.5 16.2761 13.7239 16.5 14 16.5H15C15.2761 16.5 15.5 16.2761 15.5 16V14.5C16.0523 14.5 16.5 14.0523 16.5 13.5V7.5C16.5 6.94772 16.0523 6.5 15.5 6.5H14.5C13.9477 6.5 13.5 6.94772 13.5 7.5V11.5H3.5L3.5 7.5Z" fill="white"/>
</svg>
